<?xml version="1.0" encoding="utf-8"?>
<!-- Generator: Adobe Illustrator 28.1.0, SVG Export Plug-In . SVG Version: 6.00 Build 0)  -->
<svg version="1.0" id="Layer_1" xmlns="http://www.w3.org/2000/svg" xmlns:xlink="http://www.w3.org/1999/xlink" x="0px" y="0px"
	 viewBox="0 0 500 260" style="enable-background:new 0 0 500 260;" xml:space="preserve">
<style type="text/css">
	.st0{fill:#B89C00;stroke:#000000;stroke-width:0.5513;stroke-miterlimit:10;}
</style>
<g id="LWPOLYLINE_00000138533617583431821570000002453757665649158826_">
	<path class="st0" d="M216.73,15.47c-0.3,0.01-0.59,0.04-0.89,0.07c-0.47,0.05-0.94,0.11-1.41,0.17c-0.53,0.07-1.07,0.14-1.6,0.22
		c-0.53,0.08-1.05,0.16-1.58,0.25c-0.62,0.11-1.24,0.24-1.84,0.41c-0.83,0.24-1.65,0.49-2.47,0.76c-0.89,0.29-1.76,0.6-2.63,0.93
		c-0.81,0.31-1.61,0.64-2.4,0.99c-0.81,0.36-1.61,0.75-2.4,1.16c-0.89,0.47-1.76,0.95-2.62,1.46c-0.83,0.49-1.65,1-2.45,1.52
		c-0.64,0.42-1.25,0.86-1.83,1.34c-0.66,0.53-1.29,1.1-1.87,1.7c-0.61,0.62-1.18,1.27-1.71,1.94c-0.58,0.73-1.12,1.49-1.62,2.27
		c-0.57,0.88-1.1,1.78-1.6,2.69c-0.45,0.81-0.86,1.64-1.25,2.48c-0.44,0.94-0.85,1.89-1.23,2.85c-0.37,0.92-0.72,1.85-1.04,2.78
		c-0.25,0.73-0.47,1.48-0.64,2.23c-0.16,0.69-0.3,1.38-0.43,2.08c-0.14,0.76-0.26,1.53-0.36,2.3c-0.1,0.72-0.18,1.44-0.25,2.17
		c-0.05,0.55-0.08,1.09-0.08,1.64c0,0.54,0.03,1.09,0.08,1.63c0.07,0.71,0.15,1.41,0.24,2.12c0.1,0.74,0.22,1.49,0.35,2.23
		c0.12,0.67,0.26,1.33,0.41,2c0.16,0.68,0.34,1.36,0.54,2.03c0.23,0.79,0.48,1.57,0.74,2.35c0.26,0.77,0.53,1.53,0.82,2.3
		c0.23,0.62,0.49,1.24,0.76,1.85c0.28,0.61,0.58,1.22,0.9,1.81c0.4,0.74,0.82,1.47,1.25,2.19c0.44,0.74,0.9,1.47,1.37,2.2
		c0.41,0.63,0.84,1.25,1.28,1.85c0.48,0.64,0.97,1.27,1.49,1.89c0.67,0.79,1.35,1.57,2.04,2.34c0.73,0.8,1.46,1.6,2.22,2.38
		c0.67,0.7,1.36,1.38,2.06,2.05c0.88,0.84,1.8,1.64,2.76,2.39c1.62,1.28,3.26,2.54,4.91,3.79c1.91,1.44,3.83,2.86,5.77,4.26
		c1.96,1.41,3.94,2.81,5.93,4.18c2.03,1.4,4.05,2.8,6.06,4.22c2.06,1.45,4.12,2.9,6.17,4.36c1.82,1.3,3.64,2.6,5.45,3.91
		c1.18,0.85,2.34,1.72,3.5,2.6c0.92,0.71,1.84,1.43,2.73,2.16c0.93,0.76,1.85,1.53,2.76,2.31c0.81,0.7,1.62,1.41,2.41,2.14
		c0.53,0.49,1.04,1,1.52,1.53l2.82,3.09l4.63-4.43c0.7-0.67,1.41-1.32,2.13-1.97c0.85-0.76,1.72-1.51,2.59-2.25
		c0.87-0.74,1.74-1.46,2.62-2.18c0.73-0.59,1.47-1.18,2.23-1.74c0.92-0.69,1.85-1.38,2.79-2.05c1.65-1.18,3.31-2.36,4.97-3.53
		c1.93-1.36,3.86-2.72,5.8-4.07c1.98-1.38,3.96-2.75,5.94-4.12c1.99-1.37,3.97-2.77,5.93-4.18c1.94-1.4,3.86-2.82,5.77-4.25
		c1.65-1.25,3.29-2.51,4.91-3.79c0.96-0.76,1.88-1.56,2.76-2.39c0.7-0.67,1.39-1.35,2.06-2.05c0.75-0.78,1.49-1.58,2.22-2.38
		c0.69-0.77,1.38-1.55,2.04-2.34c0.52-0.61,1.02-1.24,1.49-1.89c0.45-0.61,0.88-1.22,1.28-1.85c0.47-0.72,0.93-1.46,1.37-2.2
		c0.43-0.72,0.85-1.45,1.25-2.19c0.32-0.6,0.62-1.2,0.9-1.81c0.27-0.61,0.53-1.23,0.76-1.85c0.29-0.76,0.56-1.53,0.82-2.3
		c0.26-0.78,0.51-1.56,0.74-2.35c0.2-0.67,0.38-1.35,0.54-2.03c0.16-0.66,0.29-1.33,0.41-2c0.13-0.74,0.25-1.48,0.35-2.23
		c0.1-0.7,0.18-1.41,0.24-2.12c0.05-0.54,0.08-1.09,0.08-1.63c0-0.55-0.03-1.1-0.08-1.64c-0.07-0.72-0.15-1.45-0.25-2.17
		c-0.1-0.77-0.22-1.53-0.36-2.3c-0.12-0.7-0.27-1.39-0.43-2.08c-0.17-0.75-0.39-1.49-0.64-2.23c-0.32-0.93-0.67-1.86-1.04-2.78
		c-0.39-0.96-0.8-1.91-1.23-2.85c-0.39-0.84-0.8-1.67-1.25-2.48c-0.5-0.91-1.03-1.81-1.6-2.69c-0.5-0.78-1.04-1.54-1.62-2.27
		c-0.53-0.67-1.11-1.32-1.71-1.94c-0.59-0.6-1.21-1.16-1.87-1.7c-0.59-0.47-1.2-0.92-1.83-1.34c-0.8-0.53-1.62-1.03-2.45-1.52
		c-0.86-0.51-1.73-0.99-2.62-1.46c-0.78-0.41-1.58-0.8-2.4-1.16c-0.82-0.36-1.65-0.69-2.49-0.99c-0.96-0.34-1.93-0.67-2.91-0.96
		c-0.95-0.29-1.91-0.55-2.87-0.8c-0.77-0.19-1.55-0.35-2.34-0.47c-0.89-0.14-1.79-0.25-2.69-0.34c-0.74-0.07-1.49-0.11-2.24-0.1
		c-0.72,0-1.44,0.04-2.15,0.12c-0.81,0.09-1.61,0.21-2.41,0.36c-0.67,0.13-1.34,0.28-2,0.45c-0.79,0.21-1.58,0.44-2.36,0.69
		c-0.79,0.25-1.57,0.51-2.34,0.8c-0.66,0.24-1.3,0.5-1.93,0.79c-0.65,0.29-1.29,0.62-1.91,0.97c-0.77,0.43-1.53,0.88-2.27,1.35
		c-0.76,0.48-1.52,0.98-2.25,1.49c-0.64,0.45-1.27,0.92-1.87,1.4c-0.62,0.5-1.23,1.02-1.81,1.56c-0.7,0.65-1.39,1.3-2.07,1.97
		c-0.68,0.67-1.34,1.36-1.99,2.05c-0.55,0.59-1.08,1.19-1.58,1.81c-0.43,0.53-0.87,1.05-1.3,1.57c-0.37,0.44-0.75,0.88-1.13,1.32
		c-0.33,0.38-0.67,0.76-1,1.14c-0.03,0.04-0.09,0.06-0.14,0.06s-0.11-0.02-0.14-0.06c-0.34-0.38-0.67-0.76-1-1.14
		c-0.38-0.44-0.76-0.88-1.13-1.32c-0.44-0.52-0.87-1.04-1.3-1.57c-0.51-0.62-1.03-1.22-1.58-1.81c-0.65-0.7-1.31-1.38-1.99-2.05
		c-0.68-0.67-1.36-1.33-2.07-1.97c-0.58-0.54-1.19-1.06-1.81-1.56c-0.61-0.49-1.23-0.96-1.87-1.4c-0.74-0.51-1.49-1.01-2.25-1.49
		c-0.74-0.47-1.5-0.92-2.27-1.35c-0.62-0.35-1.25-0.67-1.91-0.96c-0.62-0.28-1.26-0.54-1.9-0.78c-0.74-0.28-1.49-0.54-2.25-0.78
		c-0.74-0.24-1.48-0.46-2.23-0.67c-0.61-0.17-1.22-0.31-1.84-0.43c-0.55-0.11-1.11-0.2-1.66-0.29c-0.56-0.09-1.11-0.16-1.67-0.23
		c-0.49-0.06-0.97-0.11-1.46-0.15C217.33,15.47,217.03,15.46,216.73,15.47z"/>
</g>
<path class="st0" d="M214.59,133.06c-0.26,0.03-1.35,0.18-2.83,0.27c-1.6,0.1-2.8,0.09-4.5,0.06c-2.65-0.05-5.31-0.11-7.96-0.19
	c-1.32-0.04-2.64-0.04-3.95,0.01c-1.33,0.05-2.65,0.14-3.97,0.27c-1.24,0.12-2.48,0.29-3.71,0.49c-1.07,0.18-2.12,0.41-3.16,0.7
	c-1.25,0.34-2.47,0.76-3.66,1.23c-1.54,0.62-3.07,1.27-4.57,1.97c-1.48,0.69-2.94,1.41-4.38,2.17c-1.05,0.56-2.06,1.18-3.01,1.85
	c-0.73,0.52-1.43,1.07-2.09,1.66c-0.49,0.43-0.93,0.92-1.29,1.44c-0.3,0.43-0.51,0.9-0.64,1.39c-0.12,0.48-0.15,0.98-0.09,1.47
	l0.16,1.25l9.53,0.24c1.98,0.05,3.97,0.11,5.95,0.18c0.97,0.04,1.94,0.11,2.9,0.22c0.78,0.09,1.56,0.23,2.32,0.42
	c1.02,0.25,2.04,0.54,3.04,0.84c1.44,0.44,2.86,0.92,4.27,1.43c1.24,0.45,2.46,0.95,3.65,1.48c1.18,0.54,2.34,1.11,3.47,1.73
	c1.26,0.7,2.51,1.42,3.72,2.19c1.13,0.7,2.22,1.45,3.27,2.23c1.02,0.75,1.99,1.55,2.93,2.38c0.83,0.74,1.62,1.51,2.36,2.31
	c0.58,0.63,1.08,1.3,1.5,2.02c0.36,0.62,0.67,1.26,0.91,1.93c0.37,1,0.71,2.01,1.02,3.03c0.36,1.18,0.69,2.37,0.99,3.56
	c0.31,1.24,0.59,2.48,0.84,3.73c0.14,0.72,0.26,1.44,0.35,2.16c0.08,0.64,0.13,1.28,0.15,1.92c0.02,0.71,0.01,1.43-0.03,2.14
	c-0.06,0.97-0.13,1.94-0.22,2.91c-0.13,1.42-0.3,2.83-0.49,4.24c-0.12,0.91-0.31,1.81-0.57,2.7c-0.23,0.81-0.54,1.61-0.91,2.38
	c-0.49,1.02-1.01,2.02-1.58,3c-0.97,1.69-2.02,3.34-3.15,4.95c-0.93,1.32-1.97,2.58-3.13,3.77c-1.01,1.04-2.13,2-3.34,2.86
	c-1.18,0.84-2.44,1.58-3.79,2.2c-1.05,0.48-2.14,0.89-3.26,1.23c-1.44,0.43-2.9,0.8-4.37,1.13c-1.5,0.33-3.01,0.61-4.53,0.84
	c-1.24,0.19-2.5,0.3-3.76,0.33c-1.34,0.04-2.68-0.02-4.01-0.18c-1.84-0.21-3.67-0.48-5.5-0.79c-1.82-0.31-3.63-0.68-5.43-1.09
	c-1.3-0.3-2.56-0.69-3.78-1.16l-3.08-1.2l-3.16,2.57c-1.46,1.18-3.02,2.26-4.68,3.22c-1.54,0.89-3.19,1.64-4.9,2.24
	c-1.77,0.61-3.61,1.08-5.48,1.37c-2.12,0.34-4.26,0.55-6.42,0.63c-1.87,0.07-3.74,0.07-5.61,0c-1.5-0.06-3-0.22-4.47-0.5
	c-1.47-0.27-2.92-0.66-4.32-1.14c-1.75-0.6-3.47-1.27-5.15-2c-2.35-1.02-4.58-2.25-6.65-3.66c-2.01-1.37-3.83-2.93-5.44-4.65
	c-1.68-1.79-3.13-3.72-4.34-5.78c-1.34-2.26-2.46-4.61-3.38-7.03c-0.28-0.73-0.53-1.48-0.76-2.22c-0.18-0.59-0.31-1.19-0.41-1.79
	c-0.1-0.67-0.17-1.35-0.2-2.03c-0.04-1.04-0.06-2.09-0.07-3.13c-0.01-2.79,0.3-5.58,0.94-8.32c0.55-2.35,1.54-4.6,2.93-6.67
	c1.39-2.07,3.16-3.93,5.24-5.51c2.44-1.84,5.08-3.46,7.89-4.84c0.74-0.36,1.48-0.73,2.21-1.11c0.7-0.36,1.4-0.74,2.09-1.12
	c0.59-0.32,1.17-0.66,1.74-0.99c0.3-0.18,0.59-0.38,0.85-0.59c0.56-0.46,0.98-1.04,1.2-1.68c0.19-0.56,0.11-1.16-0.22-1.66
	c-0.47-0.7-1.11-1.3-1.87-1.76c-1.24-0.74-2.53-1.41-3.85-2.02l-4.15-1.91l-7.02,0.03c-1.4,0.01-2.81,0.03-4.21,0.07
	c-0.93,0.03-1.85,0.09-2.77,0.2c-0.92,0.11-1.83,0.25-2.73,0.43c-1.36,0.28-2.72,0.57-4.08,0.88c-1.8,0.41-3.6,0.8-5.41,1.16
	c-1.27,0.25-2.55,0.45-3.84,0.59c-1.01,0.11-2.03,0.16-3.05,0.15c-0.94-0.01-1.88-0.09-2.81-0.24c-1.07-0.18-2.11-0.44-3.13-0.79
	c-1.02-0.35-2.01-0.79-2.94-1.29c-1.15-0.63-2.25-1.32-3.3-2.08c-1.49-1.08-2.94-2.19-4.36-3.33c-2.01-1.61-4.09-3.16-6.23-4.64
	c-1.88-1.3-3.83-2.51-5.86-3.63c-2-1.1-4.06-2.11-6.18-3.01c-2.36-1.01-4.76-1.93-7.2-2.78c-2.03-0.7-4.13-1.26-6.27-1.67
	c-3.05-0.59-6.13-1.1-9.21-1.53c-3.14-0.44-6.3-0.81-9.46-1.09c-2.4-0.22-4.82-0.3-7.24-0.24L0,128.57l3.97,2.67
	c2.18,1.47,4.28,3.01,6.32,4.62c2.72,2.16,5.4,4.37,8.04,6.61c2.55,2.18,5.06,4.39,7.54,6.63c1.45,1.32,2.8,2.73,4.02,4.21
	c0.2,0.25,0.41,0.49,0.61,0.73c0.19,0.22,0.38,0.44,0.57,0.65c0.16,0.18,0.32,0.36,0.48,0.54c0.05,0.06,0.12,0.11,0.18,0.16
	c0.97,0.69,1.84,1.48,2.6,2.34c2.55,2.89,5.07,5.79,7.58,8.7c2.47,2.87,4.92,5.76,7.33,8.67c1.59,1.92,3.12,3.89,4.57,5.9
	c0.59,0.82,1.19,1.64,1.79,2.46c0.78,1.06,1.56,2.12,2.34,3.18c0.82,1.11,1.65,2.22,2.47,3.33c0.74,0.99,1.48,1.98,2.22,2.97
	c0.71,0.94,1.41,1.88,2.1,2.82c0.71,0.96,1.41,1.92,2.11,2.88c0.62,0.85,1.23,1.7,1.84,2.55c0.39,0.54,0.76,1.09,1.13,1.65
	c0.9,1.35,1.75,2.72,2.56,4.11c1.43,2.45,2.84,4.9,4.24,7.36c1.44,2.54,2.88,5.09,4.3,7.63c0.39,0.7,0.72,1.43,0.98,2.18
	c0.1,0.27,0.2,0.55,0.32,0.81c0.26,0.6,0.51,1.2,0.77,1.8c0.31,0.71,0.62,1.42,0.94,2.13c0.34,0.76,0.68,1.51,1.02,2.27
	c0.42,0.91,0.82,1.83,1.22,2.74c0.52,1.21,1.04,2.42,1.56,3.64c0.54,1.29,1.08,2.57,1.62,3.86c0.48,1.17,0.96,2.34,1.43,3.51
	c0.43,1.08,0.87,2.15,1.31,3.23c0.42,1.01,0.84,2.02,1.27,3.02c0.36,0.85,0.73,1.69,1.1,2.53c0.17,0.39,0.36,0.77,0.57,1.15
	l1.02,1.86h109.47c15.02,0,30.04-0.01,45.07-0.02c14.96-0.01,29.92-0.04,44.88-0.06c13.02-0.02,26.05-0.06,39.07-0.09
	c7.82-0.02,15.65-0.06,23.47-0.11c8.43-0.06,16.85-0.12,25.28-0.19c3.59-0.03,7.17-0.09,10.76-0.17c2.19-0.05,4.38-0.11,6.57-0.18
	c0.31-0.01,0.59-0.19,0.69-0.44c0.29-0.72,0.59-1.43,0.91-2.14c0.82-1.81,1.64-3.61,2.47-5.41c0.82-1.8,1.65-3.59,2.48-5.38
	c0.5-1.09,1.02-2.17,1.55-3.25c0.31-0.64,0.62-1.28,0.93-1.92c0.46-0.96,0.93-1.92,1.39-2.88c0.52-1.07,1.03-2.14,1.54-3.22
	c0.5-1.04,0.99-2.07,1.49-3.11c1.05-2.19,2.11-4.38,3.2-6.56c1.18-2.37,2.38-4.74,3.6-7.1c1.13-2.19,2.28-4.38,3.44-6.56
	c0.84-1.57,1.71-3.14,2.6-4.69c0.83-1.43,1.71-2.84,2.64-4.23c1.63-2.44,3.29-4.87,4.96-7.29c1.81-2.62,3.63-5.22,5.48-7.81
	c1.61-2.25,3.24-4.49,4.91-6.72c3.33-4.46,6.9-8.78,10.68-12.95c3.83-4.22,7.88-8.3,12.12-12.21c4.26-3.92,8.71-7.68,13.35-11.26
	c4.6-3.56,9.39-6.93,14.34-10.12c0.67-0.43,1.33-0.87,1.98-1.32c0.51-0.35,1-0.72,1.48-1.1c0.36-0.29,0.71-0.59,1.06-0.89
	c0.1-0.09,0.12-0.22,0.04-0.33c-0.24-0.33-0.66-0.53-1.11-0.51c-2.58,0.08-5.16,0.17-7.74,0.28c-2.44,0.11-4.87,0.25-7.3,0.44
	c-1.39,0.11-2.76,0.33-4.11,0.67c-0.5,0.12-1,0.25-1.5,0.38c-0.61,0.15-1.22,0.31-1.83,0.46c-0.62,0.16-1.24,0.31-1.86,0.47
	c-0.53,0.13-1.05,0.27-1.58,0.4c-0.58,0.15-1.17,0.29-1.75,0.42c-0.82,0.19-1.63,0.37-2.45,0.55c-0.89,0.2-1.78,0.39-2.67,0.58
	c-0.83,0.18-1.67,0.35-2.5,0.52c-1.06,0.21-2.11,0.45-3.16,0.7c-0.83,0.2-1.65,0.44-2.46,0.7c-0.78,0.26-1.54,0.54-2.29,0.86
	c-0.89,0.38-1.76,0.77-2.62,1.19c-2.73,1.33-5.46,2.68-8.17,4.05c-1.47,0.74-2.9,1.53-4.3,2.36c-1.19,0.71-2.33,1.47-3.43,2.29
	c-1.47,1.1-2.91,2.22-4.33,3.37c-1.62,1.32-3.28,2.61-4.96,3.87c-1,0.75-2.09,1.4-3.24,1.96c-0.94,0.46-1.95,0.79-3.01,1
	c-1.25,0.25-2.52,0.4-3.8,0.45c-0.97,0.04-1.94,0.04-2.91,0.01c-0.88-0.03-1.76-0.12-2.62-0.25c-1.06-0.16-2.11-0.37-3.15-0.61
	c-1.63-0.39-3.26-0.79-4.88-1.22c-1.41-0.37-2.84-0.7-4.28-0.99c-1.18-0.24-2.38-0.41-3.59-0.52c-1.2-0.11-2.41-0.16-3.62-0.14
	c-1.47,0.02-2.93,0.08-4.39,0.19c-1.17,0.08-2.34,0.19-3.51,0.31c-0.71,0.07-1.42,0.19-2.12,0.35c-0.67,0.15-1.32,0.34-1.95,0.58
	c-0.95,0.35-1.89,0.73-2.82,1.12c-0.73,0.31-1.46,0.63-2.18,0.96c-0.49,0.23-0.97,0.48-1.43,0.75c-0.32,0.19-0.62,0.4-0.89,0.63
	c-0.18,0.15-0.31,0.35-0.38,0.56c-0.1,0.33-0.14,0.68-0.12,1.02c0.02,0.28,0.13,0.56,0.32,0.79c0.23,0.28,0.53,0.53,0.87,0.71
	c0.55,0.31,1.13,0.59,1.71,0.85c1.02,0.45,1.99,0.99,2.88,1.6c1.35,0.92,2.66,1.88,3.94,2.88c1.32,1.03,2.6,2.1,3.85,3.2
	c0.98,0.87,1.89,1.79,2.73,2.75c0.68,0.79,1.32,1.6,1.9,2.45c0.71,1.02,1.39,2.07,2.03,3.12c0.68,1.12,1.32,2.25,1.92,3.4
	c0.57,1.09,1.1,2.19,1.59,3.31c0.73,1.66,1.2,3.4,1.41,5.17c0.21,1.8,0.16,3.62-0.14,5.42c-0.34,1.99-0.92,3.94-1.74,5.82
	c-0.96,2.19-2.09,4.32-3.38,6.37c-1.32,2.09-2.81,4.09-4.47,5.98c-1.53,1.74-3.25,3.34-5.14,4.79c-1.81,1.39-3.79,2.62-5.89,3.66
	c-2.13,1.06-4.38,1.93-6.71,2.61c-0.8,0.23-1.61,0.44-2.43,0.63c-0.65,0.15-1.31,0.26-1.98,0.34c-0.76,0.08-1.52,0.14-2.28,0.15
	c-1.2,0.03-2.4,0.04-3.6,0.04c-1.2,0-2.41-0.02-3.61-0.05c-0.78-0.02-1.55-0.08-2.32-0.17c-0.69-0.08-1.37-0.2-2.05-0.35
	c-0.86-0.2-1.72-0.42-2.56-0.66c-1.23-0.35-2.44-0.73-3.64-1.15c-1.08-0.37-2.14-0.79-3.19-1.24c-1.03-0.45-2.04-0.93-3.02-1.45
	c-1.07-0.56-2.11-1.16-3.13-1.78l-3.2-1.95l-4.57,1.92c-1.78,0.75-3.61,1.38-5.49,1.9c-1.75,0.49-3.54,0.84-5.36,1.05
	c-1.8,0.21-3.61,0.29-5.43,0.22c-1.91-0.07-3.81-0.26-5.68-0.58c-1.5-0.25-2.98-0.57-4.44-0.95c-1.25-0.32-2.47-0.73-3.64-1.22
	c-1.18-0.49-2.32-1.06-3.41-1.71c-1.28-0.76-2.53-1.58-3.72-2.44c-0.81-0.58-1.57-1.21-2.28-1.88c-0.92-0.87-1.81-1.76-2.67-2.68
	c-0.93-0.99-1.82-2-2.68-3.04c-0.82-0.98-1.59-1.99-2.33-3.03c-1.41-1.98-2.57-4.09-3.45-6.29c-0.87-2.17-1.44-4.43-1.71-6.71
	c-0.28-2.35-0.25-4.72,0.08-7.06c0.35-2.49,0.96-4.94,1.84-7.33c0.91-2.47,2.09-4.86,3.53-7.13c1.38-2.17,3.03-4.2,4.93-6.05
	c1.88-1.83,3.99-3.48,6.3-4.9c2.38-1.46,4.92-2.71,7.59-3.72c1.68-0.63,3.39-1.2,5.13-1.7c1.44-0.41,2.91-0.72,4.41-0.92
	c1.69-0.23,3.4-0.36,5.12-0.39c2.57-0.05,5.14-0.06,7.72-0.01l10.12,0.16l-0.06-1.32c-0.05-1.05-0.45-2.06-1.14-2.92
	c-1.08-1.32-2.27-2.56-3.58-3.72c-1.44-1.27-3-2.43-4.66-3.47c-1.48-0.93-3.08-1.71-4.76-2.32c-2.56-0.93-5.18-1.73-7.84-2.39
	c-2.32-0.58-4.7-0.98-7.11-1.2c-2.45-0.22-4.91-0.26-7.36-0.11c-2.89,0.17-5.77,0.47-8.63,0.91c-0.99,0.15-1.98,0.28-2.98,0.39
	c-0.8,0.09-1.6,0.15-2.41,0.18c-0.8,0.03-1.28,0.06-1.88-0.01c-0.68-0.07-1.16-0.21-1.24-0.23
	C276.95,133.01,224.26,131.82,214.59,133.06z"/>
</svg>
